<svg xmlns="http://www.w3.org/2000/svg" x="0px" y="0px" xml:space="preserve" viewBox="0 0 77.41 123.36" style="color: #444545">
  <defs>
    <style type="text/css">
      .main-color{fill:currentColor;}
      .bin-wheel{fill:#1B1B1B;}
      .bin-wheel-inner{fill:#2D2D2D;}
      .overlay{
        fill:currentColor;
        filter: brightness(80%);
      }
    </style>
  </defs>
  <path class="main-color"
    d="M67.65,10S55,0,30.19,0C12,0,2.73,5.89,2.73,5.89a.87.87,0,0,0-.36.66v6.92a1.15,1.15,0,0,0,.31.73l.77.74a1.13,1.13,0,0,0,.74.29L67,13.91a.54.54,0,0,0,.51-.43L68,10.59A.64.64,0,0,0,67.65,10Z" />
  <path class="main-color"
    d="M62.25,19.9H7.18a.41.41,0,0,0-.42.43L11,117.24a1.16,1.16,0,0,0,.34.72l5.17,4.68a1.29,1.29,0,0,0,.75.29H39.57a1,1,0,0,0,.68-.35l17.87-25a1.88,1.88,0,0,0,.28-.78l4.25-76.45A.4.4,0,0,0,62.25,19.9Z" />
  <path class="bin-wheel" d="M63.13,110.22A13.14,13.14,0,1,1,50,97.08,13.14,13.14,0,0,1,63.13,110.22Z" />
  <path class="overlay"
    d="M54,24.2H14.91a.42.42,0,0,0-.42.43l4.12,93.5c0,.24.07.45.13.46a4.61,4.61,0,0,0,.64,0H33.84a1.82,1.82,0,0,0,.61-.09c.09,0,0-.48-.1-.69a20.13,20.13,0,0,1-1.8-7.62A17.46,17.46,0,0,1,50,92.78h.22a.43.43,0,0,0,.45-.41l3.78-67.74A.41.41,0,0,0,54,24.2Z" />
  <path class="bin-wheel-inner"
    d="M45.62,108.53l-5.43-2.8a10.49,10.49,0,0,0-.93,3.48l6.1.29A5.34,5.34,0,0,1,45.62,108.53Zm1.43-2-3.3-5.14A10.83,10.83,0,0,0,41.2,104l5.14,3.3A4.77,4.77,0,0,1,47.05,106.57Zm2.22-1L49,99.49a10.66,10.66,0,0,0-3.48.93l2.8,5.43A4.46,4.46,0,0,1,49.27,105.6Zm5.35,3.9,6.1-.29a10.73,10.73,0,0,0-.93-3.48l-5.43,2.8A5.34,5.34,0,0,1,54.62,109.5Zm-1-2.22,5.14-3.3a10.83,10.83,0,0,0-2.55-2.55l-3.3,5.14A4.77,4.77,0,0,1,53.64,107.28Zm-8.28,3.66-6.1.29a10.66,10.66,0,0,0,.93,3.48l5.43-2.8A5.13,5.13,0,0,1,45.36,110.94ZM45.5,120A10.42,10.42,0,0,0,49,121l.29-6.1a5.13,5.13,0,0,1-1-.26Zm8.86-8.11,5.43,2.8a10.66,10.66,0,0,0,.93-3.48l-6.1-.29A5.13,5.13,0,0,1,54.36,111.91Zm-8,1.25-5.14,3.3A10.65,10.65,0,0,0,43.75,119l3.3-5.14A4.77,4.77,0,0,1,46.34,113.16Zm6.59.71,3.3,5.14a10.65,10.65,0,0,0,2.55-2.55l-5.14-3.3A4.77,4.77,0,0,1,52.93,113.87Zm-2.22,1L51,121a10.49,10.49,0,0,0,3.48-.93l-2.8-5.43A5.13,5.13,0,0,1,50.71,114.85Zm3.77-14.43A10.66,10.66,0,0,0,51,99.49l-.29,6.11a4.46,4.46,0,0,1,1,.25Z" />
  <path class="overlay"
    d="M72.37,10.94,69.72,8.06A.5.5,0,0,0,69.08,8l-3.46,2.64a1.48,1.48,0,0,1-.77.26H.43a.43.43,0,0,0-.43.43v8.14a.43.43,0,0,0,.43.43H64.85a1.05,1.05,0,0,0,.71-.33l6.82-8A.51.51,0,0,0,72.37,10.94Z" />
  <path class="main-color" d="M77.41,8.11a4.69,4.69,0,1,1-4.69-4.69A4.69,4.69,0,0,1,77.41,8.11Z" />
  <path class="overlay" d="M75.36,8.11a2.64,2.64,0,1,1-2.64-2.64A2.64,2.64,0,0,1,75.36,8.11Z" />
</svg>
